<svg width="10" height="20" viewBox="0 0 10 20" fill="none" xmlns="http://www.w3.org/2000/svg">
<path d="M7.5 0.0700073C6.125 0.0700073 5 1.18583 5 2.54961C5 3.9134 6.125 5.02922 7.5 5.02922C8.875 5.02922 10 3.9134 10 2.54961C10 1.18583 8.875 0.0700073 7.5 0.0700073ZM3.75 6.26902C1.675 6.26902 0 7.93036 0 9.98843H2.5C2.5 9.29414 3.05 8.74863 3.75 8.74863C4.45 8.74863 5 9.29414 5 9.98843C5 10.6827 2.5 14.055 2.5 16.1874C2.5 18.3199 4.175 19.9068 6.25 19.9068C8.325 19.9068 10 18.2455 10 16.1874H7.5C7.5 16.8817 6.95 17.4272 6.25 17.4272C5.55 17.4272 5 16.8817 5 16.1874C5 15.2948 7.5 11.625 7.5 9.98843C7.5 7.97995 5.825 6.26902 3.75 6.26902Z" fill="#00C2CB"/>
</svg>
