<svg width="547" height="96" viewBox="0 0 547 96" fill="none" xmlns="http://www.w3.org/2000/svg">
<rect x="1" y="1" width="545" height="94" fill="white" stroke="#770299" stroke-width="2"/>
<path d="M81.6621 42V26.352H91.4541V29.328H85.1901V32.472H90.5181V35.424H85.1901V39.024H91.6941V42H81.6621ZM97.5226 42L92.7946 26.352H96.5386L98.4106 33.648C98.6506 34.496 98.8586 35.328 99.0346 36.144C99.2266 36.96 99.4426 37.8 99.6826 38.664H99.7786C100.003 37.8 100.211 36.96 100.403 36.144C100.595 35.328 100.803 34.496 101.027 33.648L102.875 26.352H106.475L101.771 42H97.5226ZM108.147 42V26.352H117.939V29.328H111.675V32.472H117.003V35.424H111.675V39.024H118.179V42H108.147ZM121.295 42V26.352H126.935C128.039 26.352 129.047 26.504 129.959 26.808C130.871 27.096 131.599 27.592 132.143 28.296C132.687 29 132.959 29.976 132.959 31.224C132.959 32.376 132.703 33.328 132.191 34.08C131.695 34.816 131.023 35.368 130.175 35.736L133.727 42H129.767L126.767 36.36H124.823V42H121.295ZM124.823 33.552H126.647C127.575 33.552 128.279 33.36 128.759 32.976C129.255 32.576 129.503 31.992 129.503 31.224C129.503 30.456 129.255 29.92 128.759 29.616C128.279 29.312 127.575 29.16 126.647 29.16H124.823V33.552ZM138.35 42V36.432L133.622 26.352H137.414L138.806 29.952C139.03 30.544 139.246 31.12 139.454 31.68C139.662 32.224 139.87 32.8 140.078 33.408H140.174C140.398 32.8 140.622 32.224 140.846 31.68C141.07 31.12 141.286 30.544 141.494 29.952L142.91 26.352H146.606L141.878 36.432V42H138.35ZM154.21 42.288C152.802 42.288 151.562 41.96 150.49 41.304C149.434 40.648 148.602 39.712 147.994 38.496C147.402 37.264 147.106 35.8 147.106 34.104C147.106 32.392 147.402 30.944 147.994 29.76C148.602 28.56 149.434 27.648 150.49 27.024C151.562 26.384 152.802 26.064 154.21 26.064C155.618 26.064 156.85 26.384 157.906 27.024C158.978 27.648 159.81 28.56 160.402 29.76C161.01 30.96 161.314 32.408 161.314 34.104C161.314 35.8 161.01 37.264 160.402 38.496C159.81 39.712 158.978 40.648 157.906 41.304C156.85 41.96 155.618 42.288 154.21 42.288ZM154.21 39.24C155.282 39.24 156.13 38.776 156.754 37.848C157.378 36.92 157.69 35.672 157.69 34.104C157.69 32.536 157.378 31.312 156.754 30.432C156.13 29.552 155.282 29.112 154.21 29.112C153.138 29.112 152.29 29.552 151.666 30.432C151.042 31.312 150.73 32.536 150.73 34.104C150.73 35.672 151.042 36.92 151.666 37.848C152.29 38.776 153.138 39.24 154.21 39.24ZM164.256 42V26.352H167.88L171.96 34.128L173.496 37.584H173.592C173.528 36.752 173.44 35.824 173.328 34.8C173.216 33.776 173.16 32.8 173.16 31.872V26.352H176.52V42H172.896L168.816 34.2L167.28 30.792H167.184C167.264 31.656 167.352 32.584 167.448 33.576C167.56 34.568 167.616 35.528 167.616 36.456V42H164.256ZM180.217 42V26.352H190.009V29.328H183.745V32.472H189.073V35.424H183.745V39.024H190.249V42H180.217ZM198.17 42V26.352H202.586C204.186 26.352 205.57 26.624 206.738 27.168C207.906 27.712 208.81 28.56 209.45 29.712C210.106 30.848 210.434 32.312 210.434 34.104C210.434 35.896 210.114 37.376 209.474 38.544C208.834 39.712 207.938 40.584 206.786 41.16C205.65 41.72 204.314 42 202.778 42H198.17ZM201.698 39.144H202.37C203.266 39.144 204.042 38.984 204.698 38.664C205.37 38.344 205.89 37.816 206.258 37.08C206.626 36.344 206.81 35.352 206.81 34.104C206.81 32.856 206.626 31.88 206.258 31.176C205.89 30.456 205.37 29.952 204.698 29.664C204.042 29.36 203.266 29.208 202.37 29.208H201.698V39.144ZM213.404 42V26.352H223.196V29.328H216.932V32.472H222.26V35.424H216.932V39.024H223.436V42H213.404ZM231.329 42.288C230.305 42.288 229.281 42.096 228.257 41.712C227.249 41.328 226.345 40.768 225.545 40.032L227.561 37.608C228.121 38.088 228.745 38.48 229.433 38.784C230.121 39.088 230.785 39.24 231.425 39.24C232.161 39.24 232.705 39.104 233.057 38.832C233.425 38.56 233.609 38.192 233.609 37.728C233.609 37.232 233.401 36.872 232.985 36.648C232.585 36.408 232.041 36.144 231.353 35.856L229.313 34.992C228.785 34.768 228.281 34.472 227.801 34.104C227.321 33.72 226.929 33.248 226.625 32.688C226.321 32.128 226.169 31.472 226.169 30.72C226.169 29.856 226.401 29.072 226.865 28.368C227.345 27.664 228.001 27.104 228.833 26.688C229.681 26.272 230.649 26.064 231.737 26.064C232.633 26.064 233.529 26.24 234.425 26.592C235.321 26.944 236.105 27.456 236.777 28.128L234.977 30.36C234.465 29.96 233.953 29.656 233.441 29.448C232.929 29.224 232.361 29.112 231.737 29.112C231.129 29.112 230.641 29.24 230.273 29.496C229.921 29.736 229.745 30.08 229.745 30.528C229.745 31.008 229.969 31.368 230.417 31.608C230.881 31.848 231.449 32.104 232.121 32.376L234.137 33.192C235.081 33.576 235.833 34.104 236.393 34.776C236.953 35.448 237.233 36.336 237.233 37.44C237.233 38.304 237.001 39.104 236.537 39.84C236.073 40.576 235.401 41.168 234.521 41.616C233.641 42.064 232.577 42.288 231.329 42.288ZM239.889 42V26.352H249.681V29.328H243.417V32.472H248.745V35.424H243.417V39.024H249.921V42H239.889ZM253.037 42V26.352H258.677C259.781 26.352 260.789 26.504 261.701 26.808C262.613 27.096 263.341 27.592 263.885 28.296C264.429 29 264.701 29.976 264.701 31.224C264.701 32.376 264.445 33.328 263.933 34.08C263.437 34.816 262.765 35.368 261.917 35.736L265.469 42H261.509L258.509 36.36H256.565V42H253.037ZM256.565 33.552H258.389C259.317 33.552 260.021 33.36 260.501 32.976C260.997 32.576 261.245 31.992 261.245 31.224C261.245 30.456 260.997 29.92 260.501 29.616C260.021 29.312 259.317 29.16 258.389 29.16H256.565V33.552ZM270.163 42L265.435 26.352H269.179L271.051 33.648C271.291 34.496 271.499 35.328 271.675 36.144C271.867 36.96 272.083 37.8 272.323 38.664H272.419C272.643 37.8 272.851 36.96 273.043 36.144C273.235 35.328 273.443 34.496 273.667 33.648L275.515 26.352H279.115L274.411 42H270.163ZM280.787 42V26.352H290.579V29.328H284.315V32.472H289.643V35.424H284.315V39.024H290.819V42H280.787ZM298.712 42.288C297.688 42.288 296.664 42.096 295.64 41.712C294.632 41.328 293.728 40.768 292.928 40.032L294.944 37.608C295.504 38.088 296.128 38.48 296.816 38.784C297.504 39.088 298.168 39.24 298.808 39.24C299.544 39.24 300.088 39.104 300.44 38.832C300.808 38.56 300.992 38.192 300.992 37.728C300.992 37.232 300.784 36.872 300.368 36.648C299.968 36.408 299.424 36.144 298.736 35.856L296.696 34.992C296.168 34.768 295.664 34.472 295.184 34.104C294.704 33.72 294.312 33.248 294.008 32.688C293.704 32.128 293.552 31.472 293.552 30.72C293.552 29.856 293.784 29.072 294.248 28.368C294.728 27.664 295.384 27.104 296.216 26.688C297.064 26.272 298.032 26.064 299.12 26.064C300.016 26.064 300.912 26.24 301.808 26.592C302.704 26.944 303.488 27.456 304.16 28.128L302.36 30.36C301.848 29.96 301.336 29.656 300.824 29.448C300.312 29.224 299.744 29.112 299.12 29.112C298.512 29.112 298.024 29.24 297.656 29.496C297.304 29.736 297.128 30.08 297.128 30.528C297.128 31.008 297.352 31.368 297.8 31.608C298.264 31.848 298.832 32.104 299.504 32.376L301.52 33.192C302.464 33.576 303.216 34.104 303.776 34.776C304.336 35.448 304.616 36.336 304.616 37.44C304.616 38.304 304.384 39.104 303.92 39.84C303.456 40.576 302.784 41.168 301.904 41.616C301.024 42.064 299.96 42.288 298.712 42.288ZM316.852 42.288C315.828 42.288 314.804 42.096 313.78 41.712C312.772 41.328 311.868 40.768 311.068 40.032L313.084 37.608C313.644 38.088 314.268 38.48 314.956 38.784C315.644 39.088 316.308 39.24 316.948 39.24C317.684 39.24 318.228 39.104 318.58 38.832C318.948 38.56 319.132 38.192 319.132 37.728C319.132 37.232 318.924 36.872 318.508 36.648C318.108 36.408 317.564 36.144 316.876 35.856L314.836 34.992C314.308 34.768 313.804 34.472 313.324 34.104C312.844 33.72 312.452 33.248 312.148 32.688C311.844 32.128 311.692 31.472 311.692 30.72C311.692 29.856 311.924 29.072 312.388 28.368C312.868 27.664 313.524 27.104 314.356 26.688C315.204 26.272 316.172 26.064 317.26 26.064C318.156 26.064 319.052 26.24 319.948 26.592C320.844 26.944 321.628 27.456 322.3 28.128L320.5 30.36C319.988 29.96 319.476 29.656 318.964 29.448C318.452 29.224 317.884 29.112 317.26 29.112C316.652 29.112 316.164 29.24 315.796 29.496C315.444 29.736 315.268 30.08 315.268 30.528C315.268 31.008 315.492 31.368 315.94 31.608C316.404 31.848 316.972 32.104 317.644 32.376L319.66 33.192C320.604 33.576 321.356 34.104 321.916 34.776C322.476 35.448 322.756 36.336 322.756 37.44C322.756 38.304 322.524 39.104 322.06 39.84C321.596 40.576 320.924 41.168 320.044 41.616C319.164 42.064 318.1 42.288 316.852 42.288ZM329.084 34.08L328.7 35.52H332.036L331.676 34.08C331.468 33.296 331.252 32.464 331.028 31.584C330.82 30.704 330.612 29.856 330.404 29.04H330.308C330.116 29.872 329.916 30.728 329.708 31.608C329.516 32.472 329.308 33.296 329.084 34.08ZM323.42 42L328.316 26.352H332.564L337.46 42H333.716L332.756 38.28H327.98L327.02 42H323.42ZM339.17 42V26.352H349.034V29.328H342.698V32.952H348.122V35.928H342.698V42H339.17ZM351.756 42V26.352H361.548V29.328H355.284V32.472H360.612V35.424H355.284V39.024H361.788V42H351.756ZM364.88 46.656L364.16 44.784C365.056 44.464 365.736 44.04 366.2 43.512C366.664 43 366.888 42.448 366.872 41.856C366.84 41.856 366.808 41.856 366.776 41.856C366.744 41.856 366.712 41.856 366.68 41.856C366.12 41.856 365.624 41.688 365.192 41.352C364.76 41 364.544 40.504 364.544 39.864C364.544 39.256 364.76 38.768 365.192 38.4C365.624 38.032 366.144 37.848 366.752 37.848C367.552 37.848 368.16 38.144 368.576 38.736C368.992 39.328 369.2 40.144 369.2 41.184C369.2 42.496 368.832 43.632 368.096 44.592C367.36 45.552 366.288 46.24 364.88 46.656ZM376.904 42V26.352H380.432V32.376H385.832V26.352H389.384V42H385.832V35.472H380.432V42H376.904ZM393.076 42V26.352H402.868V29.328H396.604V32.472H401.932V35.424H396.604V39.024H403.108V42H393.076ZM409.897 34.08L409.513 35.52H412.849L412.489 34.08C412.281 33.296 412.065 32.464 411.841 31.584C411.633 30.704 411.425 29.856 411.217 29.04H411.121C410.929 29.872 410.729 30.728 410.521 31.608C410.329 32.472 410.121 33.296 409.897 34.08ZM404.233 42L409.129 26.352H413.377L418.273 42H414.529L413.569 38.28H408.793L407.833 42H404.233ZM419.982 42V26.352H423.51V39.024H429.702V42H419.982ZM432.57 42V29.328H428.274V26.352H440.418V29.328H436.122V42H432.57ZM442.857 42V26.352H446.385V32.376H451.785V26.352H455.337V42H451.785V35.472H446.385V42H442.857ZM461.717 42V36.432L456.989 26.352H460.781L462.173 29.952C462.397 30.544 462.613 31.12 462.821 31.68C463.029 32.224 463.237 32.8 463.445 33.408H463.541C463.765 32.8 463.989 32.224 464.213 31.68C464.437 31.12 464.653 30.544 464.861 29.952L466.277 26.352H469.973L465.245 36.432V42H461.717ZM188.455 72V56.352H194.095C195.199 56.352 196.207 56.504 197.119 56.808C198.031 57.096 198.759 57.592 199.303 58.296C199.847 59 200.119 59.976 200.119 61.224C200.119 62.376 199.863 63.328 199.351 64.08C198.855 64.816 198.183 65.368 197.335 65.736L200.887 72H196.927L193.927 66.36H191.983V72H188.455ZM191.983 63.552H193.807C194.735 63.552 195.439 63.36 195.919 62.976C196.415 62.576 196.663 61.992 196.663 61.224C196.663 60.456 196.415 59.92 195.919 59.616C195.439 59.312 194.735 59.16 193.807 59.16H191.983V63.552ZM203.174 72V56.352H212.966V59.328H206.702V62.472H212.03V65.424H206.702V69.024H213.206V72H203.174ZM216.322 72V56.352H219.85V69.024H226.042V72H216.322ZM232.276 64.08L231.892 65.52H235.228L234.868 64.08C234.66 63.296 234.444 62.464 234.22 61.584C234.012 60.704 233.804 59.856 233.596 59.04H233.5C233.308 59.872 233.108 60.728 232.9 61.608C232.708 62.472 232.5 63.296 232.276 64.08ZM226.612 72L231.508 56.352H235.756L240.652 72H236.908L235.948 68.28H231.172L230.212 72H226.612ZM243.652 72V59.328H239.356V56.352H251.5V59.328H247.204V72H243.652ZM253.939 72V56.352H257.467V72H253.939ZM267.518 72.288C266.11 72.288 264.87 71.96 263.798 71.304C262.742 70.648 261.91 69.712 261.302 68.496C260.71 67.264 260.414 65.8 260.414 64.104C260.414 62.392 260.71 60.944 261.302 59.76C261.91 58.56 262.742 57.648 263.798 57.024C264.87 56.384 266.11 56.064 267.518 56.064C268.926 56.064 270.158 56.384 271.214 57.024C272.286 57.648 273.118 58.56 273.71 59.76C274.318 60.96 274.622 62.408 274.622 64.104C274.622 65.8 274.318 67.264 273.71 68.496C273.118 69.712 272.286 70.648 271.214 71.304C270.158 71.96 268.926 72.288 267.518 72.288ZM267.518 69.24C268.59 69.24 269.438 68.776 270.062 67.848C270.686 66.92 270.998 65.672 270.998 64.104C270.998 62.536 270.686 61.312 270.062 60.432C269.438 59.552 268.59 59.112 267.518 59.112C266.446 59.112 265.598 59.552 264.974 60.432C264.35 61.312 264.038 62.536 264.038 64.104C264.038 65.672 264.35 66.92 264.974 67.848C265.598 68.776 266.446 69.24 267.518 69.24ZM277.564 72V56.352H281.188L285.268 64.128L286.804 67.584H286.9C286.836 66.752 286.748 65.824 286.636 64.8C286.524 63.776 286.468 62.8 286.468 61.872V56.352H289.828V72H286.204L282.124 64.2L280.588 60.792H280.492C280.572 61.656 280.66 62.584 280.756 63.576C280.868 64.568 280.924 65.528 280.924 66.456V72H277.564ZM298.301 72.288C297.277 72.288 296.253 72.096 295.229 71.712C294.221 71.328 293.317 70.768 292.517 70.032L294.533 67.608C295.093 68.088 295.717 68.48 296.405 68.784C297.093 69.088 297.757 69.24 298.397 69.24C299.133 69.24 299.677 69.104 300.029 68.832C300.397 68.56 300.581 68.192 300.581 67.728C300.581 67.232 300.373 66.872 299.957 66.648C299.557 66.408 299.013 66.144 298.325 65.856L296.285 64.992C295.757 64.768 295.253 64.472 294.773 64.104C294.293 63.72 293.901 63.248 293.597 62.688C293.293 62.128 293.141 61.472 293.141 60.72C293.141 59.856 293.373 59.072 293.837 58.368C294.317 57.664 294.973 57.104 295.805 56.688C296.653 56.272 297.621 56.064 298.709 56.064C299.605 56.064 300.501 56.24 301.397 56.592C302.293 56.944 303.077 57.456 303.749 58.128L301.949 60.36C301.437 59.96 300.925 59.656 300.413 59.448C299.901 59.224 299.333 59.112 298.709 59.112C298.101 59.112 297.613 59.24 297.245 59.496C296.893 59.736 296.717 60.08 296.717 60.528C296.717 61.008 296.941 61.368 297.389 61.608C297.853 61.848 298.421 62.104 299.093 62.376L301.109 63.192C302.053 63.576 302.805 64.104 303.365 64.776C303.925 65.448 304.205 66.336 304.205 67.44C304.205 68.304 303.973 69.104 303.509 69.84C303.045 70.576 302.373 71.168 301.493 71.616C300.613 72.064 299.549 72.288 298.301 72.288ZM306.861 72V56.352H310.389V62.376H315.789V56.352H319.341V72H315.789V65.472H310.389V72H306.861ZM323.033 72V56.352H326.561V72H323.033ZM330.252 72V56.352H335.628C336.78 56.352 337.82 56.512 338.748 56.832C339.692 57.136 340.444 57.656 341.004 58.392C341.564 59.128 341.844 60.128 341.844 61.392C341.844 62.608 341.564 63.608 341.004 64.392C340.444 65.176 339.7 65.76 338.772 66.144C337.844 66.512 336.828 66.696 335.724 66.696H333.78V72H330.252ZM333.78 63.888H335.508C337.428 63.888 338.388 63.056 338.388 61.392C338.388 60.576 338.132 60 337.62 59.664C337.108 59.328 336.372 59.16 335.412 59.16H333.78V63.888ZM349.09 72.288C348.066 72.288 347.042 72.096 346.018 71.712C345.01 71.328 344.106 70.768 343.306 70.032L345.322 67.608C345.882 68.088 346.506 68.48 347.194 68.784C347.882 69.088 348.546 69.24 349.186 69.24C349.922 69.24 350.466 69.104 350.818 68.832C351.186 68.56 351.37 68.192 351.37 67.728C351.37 67.232 351.162 66.872 350.746 66.648C350.346 66.408 349.802 66.144 349.114 65.856L347.074 64.992C346.546 64.768 346.042 64.472 345.562 64.104C345.082 63.72 344.69 63.248 344.386 62.688C344.082 62.128 343.93 61.472 343.93 60.72C343.93 59.856 344.162 59.072 344.626 58.368C345.106 57.664 345.762 57.104 346.594 56.688C347.442 56.272 348.41 56.064 349.498 56.064C350.394 56.064 351.29 56.24 352.186 56.592C353.082 56.944 353.866 57.456 354.538 58.128L352.738 60.36C352.226 59.96 351.714 59.656 351.202 59.448C350.69 59.224 350.122 59.112 349.498 59.112C348.89 59.112 348.402 59.24 348.034 59.496C347.682 59.736 347.506 60.08 347.506 60.528C347.506 61.008 347.73 61.368 348.178 61.608C348.642 61.848 349.21 62.104 349.882 62.376L351.898 63.192C352.842 63.576 353.594 64.104 354.154 64.776C354.714 65.448 354.994 66.336 354.994 67.44C354.994 68.304 354.762 69.104 354.298 69.84C353.834 70.576 353.162 71.168 352.282 71.616C351.402 72.064 350.338 72.288 349.09 72.288ZM359.402 72.288C358.794 72.288 358.282 72.08 357.866 71.664C357.466 71.232 357.266 70.704 357.266 70.08C357.266 69.44 357.466 68.912 357.866 68.496C358.282 68.064 358.794 67.848 359.402 67.848C360.01 67.848 360.514 68.064 360.914 68.496C361.33 68.912 361.538 69.44 361.538 70.08C361.538 70.704 361.33 71.232 360.914 71.664C360.514 72.08 360.01 72.288 359.402 72.288Z" fill="#770299"/>
</svg>
