<svg width="19" height="30" viewBox="0 0 19 30" fill="none" xmlns="http://www.w3.org/2000/svg">
<path d="M0.71161 0C0.299625 0 0 0.299625 0 0.71161V29.2884C0 29.7004 0.299625 30 0.71161 30H18.0524C18.4644 30 18.764 29.7004 18.764 29.2884V0.71161C18.764 0.299625 18.4644 0 18.0524 0H0.71161V0ZM3.74532 3.74532H14.9813V22.4719H3.74532V3.74532ZM9.36329 24.3446C10.412 24.3446 11.236 25.1685 11.236 26.2172C11.236 27.2659 10.412 28.0899 9.36329 28.0899C8.31461 28.0899 7.49064 27.2659 7.49064 26.2172C7.49064 25.1685 8.31461 24.3446 9.36329 24.3446Z" fill="#770299"/>
</svg>
