<svg width="176" height="23" viewBox="0 0 176 23" fill="none" xmlns="http://www.w3.org/2000/svg">
<path d="M6.624 18.288C5.6 18.288 4.576 18.096 3.552 17.712C2.544 17.328 1.64 16.768 0.84 16.032L2.856 13.608C3.416 14.088 4.04 14.48 4.728 14.784C5.416 15.088 6.08 15.24 6.72 15.24C7.456 15.24 8 15.104 8.352 14.832C8.72 14.56 8.904 14.192 8.904 13.728C8.904 13.232 8.696 12.872 8.28 12.648C7.88 12.408 7.336 12.144 6.648 11.856L4.608 10.992C4.08 10.768 3.576 10.472 3.096 10.104C2.616 9.72 2.224 9.248 1.92 8.688C1.616 8.128 1.464 7.472 1.464 6.72C1.464 5.856 1.696 5.072 2.16 4.368C2.64 3.664 3.296 3.104 4.128 2.688C4.976 2.272 5.944 2.064 7.032 2.064C7.928 2.064 8.824 2.24 9.72 2.592C10.616 2.944 11.4 3.456 12.072 4.128L10.272 6.36C9.76 5.96 9.248 5.656 8.736 5.448C8.224 5.224 7.656 5.112 7.032 5.112C6.424 5.112 5.936 5.24 5.568 5.496C5.216 5.736 5.04 6.08 5.04 6.528C5.04 7.008 5.264 7.368 5.712 7.608C6.176 7.848 6.744 8.104 7.416 8.376L9.432 9.192C10.376 9.576 11.128 10.104 11.688 10.776C12.248 11.448 12.528 12.336 12.528 13.44C12.528 14.304 12.296 15.104 11.832 15.84C11.368 16.576 10.696 17.168 9.816 17.616C8.936 18.064 7.872 18.288 6.624 18.288ZM20.0079 18.288C18.9999 18.288 18.0479 18.048 17.1519 17.568C16.2719 17.072 15.5599 16.36 15.0159 15.432C14.4719 14.488 14.1999 13.36 14.1999 12.048C14.1999 10.72 14.4719 9.592 15.0159 8.664C15.5599 7.736 16.2719 7.032 17.1519 6.552C18.0479 6.056 18.9999 5.808 20.0079 5.808C21.0159 5.808 21.9599 6.056 22.8399 6.552C23.7199 7.032 24.4319 7.736 24.9759 8.664C25.5199 9.592 25.7919 10.72 25.7919 12.048C25.7919 13.36 25.5199 14.488 24.9759 15.432C24.4319 16.36 23.7199 17.072 22.8399 17.568C21.9599 18.048 21.0159 18.288 20.0079 18.288ZM20.0079 15.432C20.7279 15.432 21.2719 15.128 21.6399 14.52C22.0079 13.896 22.1919 13.072 22.1919 12.048C22.1919 11.008 22.0079 10.184 21.6399 9.576C21.2719 8.968 20.7279 8.664 20.0079 8.664C19.2719 8.664 18.7199 8.968 18.3519 9.576C17.9999 10.184 17.8239 11.008 17.8239 12.048C17.8239 13.072 17.9999 13.896 18.3519 14.52C18.7199 15.128 19.2719 15.432 20.0079 15.432ZM27.5124 22.704C27.0164 22.704 26.6084 22.672 26.2884 22.608C25.9524 22.544 25.6644 22.464 25.4244 22.368L26.0484 19.776C26.2084 19.824 26.3684 19.864 26.5284 19.896C26.6724 19.928 26.8244 19.944 26.9844 19.944C27.4484 19.944 27.7684 19.784 27.9444 19.464C28.1364 19.16 28.2324 18.68 28.2324 18.024V6.096H31.7604V17.928C31.7604 18.792 31.6324 19.584 31.3764 20.304C31.1204 21.024 30.6804 21.6 30.0564 22.032C29.4484 22.48 28.6004 22.704 27.5124 22.704ZM30.0084 4.344C29.4164 4.344 28.9364 4.176 28.5684 3.84C28.2004 3.504 28.0164 3.056 28.0164 2.496C28.0164 1.936 28.2004 1.488 28.5684 1.152C28.9364 0.815999 29.4164 0.647999 30.0084 0.647999C30.6004 0.647999 31.0804 0.815999 31.4484 1.152C31.8164 1.488 32.0004 1.936 32.0004 2.496C32.0004 3.056 31.8164 3.504 31.4484 3.84C31.0804 4.176 30.6004 4.344 30.0084 4.344ZM40.0001 18.288C38.9921 18.288 38.0401 18.048 37.1441 17.568C36.2641 17.072 35.5521 16.36 35.0081 15.432C34.4641 14.488 34.1921 13.36 34.1921 12.048C34.1921 10.72 34.4641 9.592 35.0081 8.664C35.5521 7.736 36.2641 7.032 37.1441 6.552C38.0401 6.056 38.9921 5.808 40.0001 5.808C41.0081 5.808 41.9521 6.056 42.8321 6.552C43.7121 7.032 44.4241 7.736 44.9681 8.664C45.5121 9.592 45.7841 10.72 45.7841 12.048C45.7841 13.36 45.5121 14.488 44.9681 15.432C44.4241 16.36 43.7121 17.072 42.8321 17.568C41.9521 18.048 41.0081 18.288 40.0001 18.288ZM40.0001 15.432C40.7201 15.432 41.2641 15.128 41.6321 14.52C42.0001 13.896 42.1841 13.072 42.1841 12.048C42.1841 11.008 42.0001 10.184 41.6321 9.576C41.2641 8.968 40.7201 8.664 40.0001 8.664C39.2641 8.664 38.7121 8.968 38.3441 9.576C37.9921 10.184 37.8161 11.008 37.8161 12.048C37.8161 13.072 37.9921 13.896 38.3441 14.52C38.7121 15.128 39.2641 15.432 40.0001 15.432ZM51.7766 18.288C50.4806 18.288 49.5366 17.864 48.9446 17.016C48.3686 16.152 48.0806 14.976 48.0806 13.488V6.096H51.6086V13.032C51.6086 13.88 51.7286 14.472 51.9686 14.808C52.2086 15.128 52.5846 15.288 53.0966 15.288C53.5446 15.288 53.9206 15.184 54.2246 14.976C54.5286 14.768 54.8566 14.432 55.2086 13.968V6.096H58.7366V18H55.8566L55.5926 16.344H55.5206C55.0246 16.936 54.4806 17.408 53.8886 17.76C53.2966 18.112 52.5926 18.288 51.7766 18.288ZM61.8413 18V6.096H64.7213L64.9613 8.184H65.0573C65.4893 7.384 66.0093 6.792 66.6172 6.408C67.2253 6.008 67.8333 5.808 68.4413 5.808C68.7773 5.808 69.0573 5.832 69.2813 5.88C69.5053 5.912 69.6973 5.968 69.8573 6.048L69.2813 9.096C69.0733 9.032 68.8653 8.984 68.6573 8.952C68.4653 8.92 68.2413 8.904 67.9853 8.904C67.5373 8.904 67.0653 9.072 66.5693 9.408C66.0893 9.728 65.6893 10.288 65.3693 11.088V18H61.8413ZM71.4038 18V6.096H74.2838L74.5238 7.608H74.6198C75.1318 7.128 75.6918 6.712 76.2998 6.36C76.9238 5.992 77.6358 5.808 78.4358 5.808C79.7318 5.808 80.6678 6.24 81.2438 7.104C81.8358 7.952 82.1318 9.12 82.1318 10.608V18H78.6038V11.064C78.6038 10.2 78.4838 9.608 78.2438 9.288C78.0198 8.968 77.6518 8.808 77.1398 8.808C76.6918 8.808 76.3078 8.912 75.9878 9.12C75.6678 9.312 75.3158 9.592 74.9318 9.96V18H71.4038ZM90.4661 18.288C89.3301 18.288 88.3061 18.04 87.3941 17.544C86.4821 17.048 85.7621 16.336 85.2341 15.408C84.7061 14.48 84.4421 13.36 84.4421 12.048C84.4421 10.752 84.7061 9.64 85.2341 8.712C85.7781 7.784 86.4821 7.072 87.3461 6.576C88.2101 6.064 89.1141 5.808 90.0581 5.808C91.1941 5.808 92.1301 6.064 92.8661 6.576C93.6181 7.072 94.1781 7.752 94.5461 8.616C94.9301 9.464 95.1221 10.432 95.1221 11.52C95.1221 11.824 95.1061 12.128 95.0741 12.432C95.0421 12.72 95.0101 12.936 94.9781 13.08H87.8501C88.0101 13.944 88.3701 14.584 88.9301 15C89.4901 15.4 90.1621 15.6 90.9461 15.6C91.7941 15.6 92.6501 15.336 93.5141 14.808L94.6901 16.944C94.0821 17.36 93.4021 17.688 92.6501 17.928C91.8981 18.168 91.1701 18.288 90.4661 18.288ZM87.8261 10.752H92.1221C92.1221 10.096 91.9621 9.56 91.6421 9.144C91.3381 8.712 90.8341 8.496 90.1301 8.496C89.5861 8.496 89.0981 8.688 88.6661 9.072C88.2341 9.44 87.9541 10 87.8261 10.752ZM97.56 18V6.096H100.44L100.68 8.184H100.776C101.208 7.384 101.728 6.792 102.336 6.408C102.944 6.008 103.552 5.808 104.16 5.808C104.496 5.808 104.776 5.832 105 5.88C105.224 5.912 105.416 5.968 105.576 6.048L105 9.096C104.792 9.032 104.584 8.984 104.376 8.952C104.184 8.92 103.96 8.904 103.704 8.904C103.256 8.904 102.784 9.072 102.288 9.408C101.808 9.728 101.408 10.288 101.088 11.088V18H97.56ZM112.215 18V2.352H115.743V8.376H121.143V2.352H124.695V18H121.143V11.472H115.743V18H112.215ZM133.211 18.288C132.203 18.288 131.251 18.048 130.355 17.568C129.475 17.072 128.763 16.36 128.219 15.432C127.675 14.488 127.403 13.36 127.403 12.048C127.403 10.72 127.675 9.592 128.219 8.664C128.763 7.736 129.475 7.032 130.355 6.552C131.251 6.056 132.203 5.808 133.211 5.808C134.219 5.808 135.163 6.056 136.043 6.552C136.923 7.032 137.635 7.736 138.179 8.664C138.723 9.592 138.995 10.72 138.995 12.048C138.995 13.36 138.723 14.488 138.179 15.432C137.635 16.36 136.923 17.072 136.043 17.568C135.163 18.048 134.219 18.288 133.211 18.288ZM133.211 15.432C133.931 15.432 134.475 15.128 134.843 14.52C135.211 13.896 135.395 13.072 135.395 12.048C135.395 11.008 135.211 10.184 134.843 9.576C134.475 8.968 133.931 8.664 133.211 8.664C132.475 8.664 131.923 8.968 131.555 9.576C131.203 10.184 131.027 11.008 131.027 12.048C131.027 13.072 131.203 13.896 131.555 14.52C131.923 15.128 132.475 15.432 133.211 15.432ZM144.988 18.288C143.692 18.288 142.748 17.864 142.156 17.016C141.58 16.152 141.292 14.976 141.292 13.488V6.096H144.82V13.032C144.82 13.88 144.94 14.472 145.18 14.808C145.42 15.128 145.796 15.288 146.308 15.288C146.756 15.288 147.132 15.184 147.436 14.976C147.74 14.768 148.068 14.432 148.42 13.968V6.096H151.948V18H149.068L148.804 16.344H148.732C148.236 16.936 147.692 17.408 147.1 17.76C146.508 18.112 145.804 18.288 144.988 18.288ZM158.556 18.288C157.772 18.288 156.964 18.136 156.132 17.832C155.316 17.528 154.604 17.128 153.996 16.632L155.58 14.424C156.124 14.824 156.644 15.136 157.14 15.36C157.652 15.568 158.156 15.672 158.652 15.672C159.18 15.672 159.564 15.584 159.804 15.408C160.044 15.216 160.164 14.968 160.164 14.664C160.164 14.392 160.044 14.168 159.804 13.992C159.58 13.816 159.284 13.656 158.916 13.512C158.548 13.352 158.156 13.192 157.74 13.032C157.26 12.84 156.78 12.6 156.3 12.312C155.836 12.024 155.444 11.656 155.124 11.208C154.804 10.744 154.644 10.184 154.644 9.528C154.644 8.424 155.06 7.528 155.892 6.84C156.74 6.152 157.844 5.808 159.204 5.808C160.116 5.808 160.916 5.968 161.604 6.288C162.308 6.592 162.908 6.936 163.404 7.32L161.82 9.432C161.404 9.112 160.988 8.864 160.572 8.688C160.156 8.512 159.74 8.424 159.324 8.424C158.412 8.424 157.956 8.736 157.956 9.36C157.956 9.744 158.18 10.04 158.628 10.248C159.092 10.44 159.628 10.648 160.236 10.872C160.748 11.048 161.244 11.28 161.724 11.568C162.22 11.84 162.628 12.208 162.948 12.672C163.284 13.12 163.452 13.712 163.452 14.448C163.452 15.52 163.036 16.432 162.204 17.184C161.372 17.92 160.156 18.288 158.556 18.288ZM171.021 18.288C169.885 18.288 168.861 18.04 167.949 17.544C167.037 17.048 166.317 16.336 165.789 15.408C165.261 14.48 164.997 13.36 164.997 12.048C164.997 10.752 165.261 9.64 165.789 8.712C166.333 7.784 167.037 7.072 167.901 6.576C168.765 6.064 169.669 5.808 170.613 5.808C171.749 5.808 172.685 6.064 173.421 6.576C174.173 7.072 174.733 7.752 175.101 8.616C175.485 9.464 175.677 10.432 175.677 11.52C175.677 11.824 175.661 12.128 175.629 12.432C175.597 12.72 175.565 12.936 175.533 13.08H168.405C168.565 13.944 168.925 14.584 169.485 15C170.045 15.4 170.717 15.6 171.501 15.6C172.349 15.6 173.205 15.336 174.069 14.808L175.245 16.944C174.637 17.36 173.957 17.688 173.205 17.928C172.453 18.168 171.725 18.288 171.021 18.288ZM168.381 10.752H172.677C172.677 10.096 172.517 9.56 172.197 9.144C171.893 8.712 171.389 8.496 170.685 8.496C170.141 8.496 169.653 8.688 169.221 9.072C168.789 9.44 168.509 10 168.381 10.752Z" fill="#770299"/>
</svg>
