<svg width="18" height="20" viewBox="0 0 18 20" fill="none" xmlns="http://www.w3.org/2000/svg">
<path d="M7.7597 0.0700073C7.60951 0.0700073 7.50939 0.169316 7.43429 0.293451L0.0750939 17.2007C0.0250313 17.3248 0 17.5234 0 17.6724V19.6834C0 19.8075 0.100125 19.9068 0.225282 19.9068H17.2716C17.3967 19.9068 17.4969 19.8075 17.4969 19.6834V17.6724C17.4969 17.5483 17.4718 17.3248 17.4218 17.2007L10.0626 0.293451C10.0125 0.169316 9.88736 0.0700073 9.73717 0.0700073H7.70964L7.7597 0.0700073ZM7.53442 7.51813H10.0375V12.4836H7.53442V7.51813ZM7.53442 14.9663H10.0375V17.449H7.53442V14.9663Z" fill="#00C2CB"/>
</svg>
